<?xml version="1.0" encoding="UTF-8"?>
<svg id="_レイヤー_2" data-name="レイヤー 2" xmlns="http://www.w3.org/2000/svg" viewBox="0 0 880.68 897.56">
  <defs>
    <style>
      .cls-1 {
        fill: #0af;
      }

      .cls-2 {
        fill: none;
        stroke: #0af;
        stroke-miterlimit: 10;
        stroke-width: 37px;
      }
    </style>
  </defs>
  <path class="cls-2" d="M801.97,281.2c-1.97-3.12-6.12-4.01-9.2-1.98l-16.57,10.9c-3,1.97-3.87,5.98-1.96,9.01,35.96,56.9,54.93,122.54,54.93,190.26,0,196.66-160,356.66-356.66,356.66S124.88,694.92,116.23,505.89h102.19c3.32,0,6.34-1.95,7.71-4.98l65.44-145.06c.4-.88,1.68-.78,1.94.15l88.58,321.09c1.25,4.51,7.38,5.17,9.54,1.02l83.83-160.32c.32-.62,1.16-.74,1.65-.25l17.7,17.93c1.55,1.57,4.07,1.58,5.64.04l17.82-17.59c1.57-1.55,1.58-4.07.04-5.64l-25.06-25.39c-.63-.64-.78-1.61-.36-2.41l112-214.17,27.92,14.31,52.7-212.56-141.75,166.92,31.74,16.27-107.01,204.64c-.32.62-1.16.74-1.65.25l-16.63-16.85c-1.55-1.57-4.07-1.58-5.64-.04l-17.82,17.59c-1.57,1.55-1.58,4.07-.04,5.64l24,24.31c.63.64.78,1.61.36,2.41l-54.73,104.66c-.43.83-1.66.7-1.91-.2l-88.85-322.07c-1.8-6.52-10.77-7.21-13.55-1.05l-88.93,197.12c-.33.74-1.07,1.21-1.88,1.21h-84.99c8.17-174.09,144.71-319.92,318.67-338.19,3.57-.38,6.18-3.54,5.87-7.12l-1.71-19.76c-.32-3.68-3.6-6.38-7.27-6-94.22,9.79-181.31,53.49-245.87,123.53-62.75,68.07-98.87,155.42-102.74,247.54H26.96c-4.67,0-8.46,3.79-8.46,8.46v16.11c0,4.67,3.79,8.46,8.46,8.46h56.22c1.93,46.77,12.09,92.17,30.28,135.18,19.63,46.41,47.72,88.08,83.5,123.86,35.78,35.78,77.45,63.88,123.86,83.5,48.05,20.32,99.09,30.63,151.69,30.63s103.63-10.3,151.69-30.63c46.41-19.63,88.08-47.72,123.86-83.5,35.78-35.78,63.88-77.45,83.5-123.86,20.32-48.05,30.63-99.09,30.63-151.69,0-74.11-20.8-145.94-60.21-208.18Z"/>
  <path class="cls-1" d="M801.97,281.2c-1.97-3.12-6.12-4.01-9.2-1.98l-16.57,10.9c-3,1.97-3.87,5.98-1.96,9.01,35.96,56.9,54.93,122.54,54.93,190.26,0,196.66-160,356.66-356.66,356.66S124.88,694.92,116.23,505.89h102.19c3.32,0,6.34-1.95,7.71-4.98l65.44-145.06c.4-.88,1.68-.78,1.94.15l88.58,321.09c1.25,4.51,7.38,5.17,9.54,1.02l83.83-160.32c.32-.62,1.16-.74,1.65-.25l17.7,17.93c1.55,1.57,4.07,1.58,5.64.04l17.82-17.59c1.57-1.55,1.58-4.07.04-5.64l-25.06-25.39c-.63-.64-.78-1.61-.36-2.41l112-214.17,27.92,14.31,52.7-212.56-141.75,166.92,31.74,16.27-107.01,204.64c-.32.62-1.16.74-1.65.25l-16.63-16.85c-1.55-1.57-4.07-1.58-5.64-.04l-17.82,17.59c-1.57,1.55-1.58,4.07-.04,5.64l24,24.31c.63.64.78,1.61.36,2.41l-54.73,104.66c-.43.83-1.66.7-1.91-.2l-88.85-322.07c-1.8-6.52-10.77-7.21-13.55-1.05l-88.93,197.12c-.33.74-1.07,1.21-1.88,1.21h-84.99c8.17-174.09,144.71-319.92,318.67-338.19,3.57-.38,6.18-3.54,5.87-7.12l-1.71-19.76c-.32-3.68-3.6-6.38-7.27-6-94.22,9.79-181.31,53.49-245.87,123.53-62.75,68.07-98.87,155.42-102.74,247.54H26.96c-4.67,0-8.46,3.79-8.46,8.46v16.11c0,4.67,3.79,8.46,8.46,8.46h56.22c1.93,46.77,12.09,92.17,30.28,135.18,19.63,46.41,47.72,88.08,83.5,123.86,35.78,35.78,77.45,63.88,123.86,83.5,48.05,20.32,99.09,30.63,151.69,30.63s103.63-10.3,151.69-30.63c46.41-19.63,88.08-47.72,123.86-83.5,35.78-35.78,63.88-77.45,83.5-123.86,20.32-48.05,30.63-99.09,30.63-151.69,0-74.11-20.8-145.94-60.21-208.18Z"/>
</svg>