<?xml version="1.0" encoding="UTF-8"?>
<svg xmlns="http://www.w3.org/2000/svg" viewBox="0 330 1100 300">
  <defs>
    <style>
      .cls-1 {
        letter-spacing: -.09em;
      }

      .cls-2 {
        letter-spacing: 0em;
      }

      .cls-3 {
        fill: #ff954d;
        stroke: #ff954d;
      }

      .cls-3, .cls-4 {
        stroke-miterlimit: 10;
        stroke-width: 3px;
      }

      .cls-5 {
        fill: #534741;
        font-family: NotoSansJP-Bold, 'Noto Sans JP';
        font-size: 111.14px;
        font-variation-settings: 'wght' 700;
        font-weight: 700;
      }

      .cls-4 {
        fill: #ffb945;
        stroke: #ffb945;
      }

      .cls-6 {
        letter-spacing: -.02em;
      }

      .cls-7 {
        letter-spacing: -.03em;
      }
    </style>
  </defs>
  <g id="_レイヤー_3" data-name="レイヤー 3">
    <path class="cls-4" d="M64.7,556.51c-12.39-21.82-18.93-46.68-18.93-71.91,0-19.69,3.86-38.79,11.47-56.78,7.35-17.37,17.86-32.97,31.25-46.36,13.39-13.39,28.99-23.91,46.36-31.25,17.99-7.61,37.09-11.47,56.78-11.47s38.79,3.86,56.77,11.47c17.37,7.35,32.97,17.86,46.36,31.25,13.39,13.39,23.91,28.99,31.25,46.36,7.61,17.99,11.47,37.09,11.47,56.78,0,39.85-9.63,68.31-31.21,92.28l-2.83,3.15c-2.32,2.58-6.29,2.78-8.86.46l-6.3-5.67c-2.58-2.32-2.78-6.29-.46-8.86l2.83-3.15c17.58-19.52,25.36-42.16,25.79-75.3.94-73.18-57.71-131.08-130.82-127.6-66.05,3.15-118.82,57.87-118.82,124.68,0,39.36,18.11,75.62,49,99.18.03.03.08.01.1-.02,7.67-14.87,18.06-29.15,29.4-38.35,15.25-12.37,32.08-18.4,50.13-19.87.19-.02.38,0,.57,0,26.59.62,38.78,7.57,53.2,19.06,13.96,11.13,22.73,25.42,29.31,42.68l1.47,4c1.09,3.29,1.01,7.21-2.58,8.66l-8.5,5.82c-3.29,1.09-6,.17-7.09-3.12l-1.33-4.02c-9.7-29.23-32.06-52.94-63.82-51.82-.14,0,0,0-.14,0-23.06.8-46.4,12.53-69.44,58.49-1.51,3.01-8.64,4.29-11.69,2.89-16.35-7.49-40.15-33.12-50.68-51.67Z"/>
    <path class="cls-3" d="M158.33,527.33c-1.82,2.95-4.34,4.06-8.64,2.05l-3.6-1.98c-14.91-9.2-28.35-22.81-36.01-39.12-6.93-14.77-9.02-28.47-7.84-44.2.9-11.88,5.02-23.89,11.01-33.37s13.67-14.93,23.73-19.61c20.23-9.41,44.35-3.92,59.36,10.76,12.08,11.82,19.43,24.93,23.69,44.32,4.47,20.37-.5,42.57-7.53,59.8l-1.6,3.92c-1.31,3.21-4.97,4.75-8.18,3.44l-7.84-3.2c-3.21-1.31-4.75-4.97-3.44-8.18l1.6-3.92c15.46-34.43,9.93-62.51-12.09-82.43-10.48-9.48-26.18-11.53-38.12-4.89-11.86,6.6-18.35,17.59-19.69,35.35-1.65,21.95,8.56,47.52,33.98,63.2l3.6,2.22c2.95,1.82,3.87,5.69,2.05,8.64l-4.45,7.21Z"/>
    <path class="cls-3" d="M174.77,507.07c-3,1.35-6.52,0-7.87-2.99l-1.87-4.16c-8.04-17.9-7.45-43.71-.3-62.61h0c.59-1.43.57-1.36.99-2.38,1.36-3.29,4.63-5.26,8.09-3.84.21.09,1.23.58,1.45.7l7.03,3.92c.4.22.31.17.5.28,2.85,1.58,4.1,4.3,3.03,7.43-.04.12-.12.39-.15.51l-2.43,8.38c-2.43,10.77-4.78,26.2.97,39l2.19,4.88c1.17,2.6,0,5.65-2.59,6.82l-9.05,4.06Z"/>
    <path class="cls-3" d="M230.89,523.8l-4.95-7.37c-1.5-3.28-.99-5.85,1.9-7.77l2.43-1.42c31.51-20.99,35.7-42.06,35.58-60.63-.15-22.63-10.14-33.82-22.83-40.75-6.71-3.67-17.8-3.12-24.66-.13-.68.3-2.13,1.04-2.67,1.28-2.86,1.29-5.87.55-7.84-2.13l-3.37-5.54c-1.87-3.61-1.73-6.98,1.24-9.05l3.28-1.91c11.72-6.95,30.24-6.51,42.2-1.14,10.15,4.55,19.95,13.82,25.27,24.1,4.94,9.54,9.18,18.51,9.03,34.61-.3,31.48-15.48,58.74-42.37,76.64l-3.53,2.35c-2.89,1.92-6.79,1.74-8.71-1.15Z"/>
  </g>
  <g id="_レイヤー_4" data-name="レイヤー 4">
    <text class="cls-5" transform="translate(400.23 530.4)"><tspan class="cls-1" x="0" y="0">T</tspan><tspan class="cls-2" x="59.57" y="0">empl</tspan><tspan class="cls-6" x="337.86" y="0">a</tspan><tspan class="cls-7" x="400.76" y="0">t</tspan><tspan class="cls-6" x="444.44" y="0">t</tspan><tspan x="488.45" y="0">e</tspan></text>
  </g>
</svg>