<?xml version="1.0" encoding="UTF-8"?>
<svg id="_レイヤー_3" data-name="レイヤー 3" xmlns="http://www.w3.org/2000/svg" viewBox="0 0 950.85 880.82">
  <defs>
    <style>
      .cls-1 {
        fill: #ff954d;
        stroke: #ff954d;
      }

      .cls-1, .cls-2 {
        stroke-miterlimit: 10;
        stroke-width: 9px;
      }

      .cls-2 {
        fill: #ffb945;
        stroke: #ffb945;
      }
    </style>
  </defs>
  <path class="cls-2" d="M91.01,712.53c-38.84-68.41-59.37-146.38-59.37-225.49,0-61.73,12.1-121.63,35.95-178.03,23.04-54.47,56.01-103.37,98-145.37,41.99-41.99,90.9-74.96,145.37-98,56.41-23.86,116.31-35.95,178.03-35.95s121.63,12.1,178.03,35.95c54.47,23.04,103.37,56.01,145.37,98,41.99,41.99,74.96,90.9,98,145.37,23.86,56.41,35.95,116.31,35.95,178.03,0,124.96-30.18,214.2-97.86,289.37l-8.89,9.87c-7.27,8.08-19.72,8.73-27.8,1.46l-19.74-17.78c-8.08-7.27-8.73-19.72-1.46-27.8l8.89-9.87c55.13-61.22,79.54-132.21,80.87-236.11,2.95-229.48-180.97-411.03-410.21-400.11-207.11,9.87-372.58,181.46-372.58,390.98,0,123.44,56.79,237.14,153.64,311.01.11.08.26.05.33-.07,24.05-46.62,56.63-91.41,92.2-120.27,47.81-38.78,100.59-57.69,157.2-62.32.59-.05,1.19-.02,1.78,0,83.37,1.93,121.62,23.75,166.81,59.77,43.78,34.9,71.27,79.71,91.9,133.84l4.6,12.54c3.42,10.32,3.17,22.62-8.1,27.14l-26.65,18.25c-10.32,3.42-18.81.55-22.23-9.77l-4.19-12.61c-30.43-91.65-100.52-166.01-200.12-162.49-.43.02,0,0-.43.02-72.31,2.51-145.5,39.28-217.73,183.42-4.72,9.43-27.08,13.44-36.67,9.05-51.27-23.49-125.91-103.87-158.92-162.01Z"/>
  <path class="cls-1" d="M384.6,621.02c-5.71,9.25-13.62,12.74-27.09,6.42l-11.29-6.22c-46.75-28.84-88.9-71.52-112.91-122.67-21.73-46.31-28.3-89.28-24.58-138.6,2.81-37.26,15.75-74.91,34.52-104.63s42.88-46.82,74.43-61.48c63.44-29.49,139.08-12.28,186.13,33.74,37.89,37.06,60.94,78.18,74.29,138.98,14.03,63.88-1.57,133.49-23.63,187.51l-5.02,12.3c-4.11,10.06-15.6,14.89-25.66,10.78l-24.59-10.04c-10.06-4.11-14.89-15.6-10.78-25.66l5.02-12.3c48.47-107.97,31.15-196.03-37.9-258.48-32.86-29.72-82.1-36.16-119.52-15.34s-57.55,55.16-61.74,110.84c-5.19,68.84,26.85,149.01,106.56,198.19l11.3,6.97c9.25,5.71,12.12,17.83,6.42,27.09l-13.95,22.61Z"/>
  <path class="cls-1" d="M436.15,557.5c-9.4,4.22-20.44.02-24.66-9.38l-5.86-13.05c-25.21-56.13-23.36-137.05-.94-196.33h.02c1.87-4.48,1.79-4.26,3.12-7.46,4.28-10.3,14.51-16.48,25.36-12.05.66.27,3.86,1.81,4.54,2.2l22.06,12.3c1.25.68.98.54,1.55.86,8.95,4.95,12.86,13.48,9.51,23.3-.12.36-.39,1.23-.48,1.6l-7.64,26.29c-7.62,33.76-14.98,82.14,3.04,122.28l6.88,15.31c3.66,8.15.02,17.73-8.13,21.39l-28.36,12.74Z"/>
  <path class="cls-1" d="M612.15,609.95l-15.51-23.1c-4.7-10.3-3.09-18.34,5.95-24.37l7.62-4.45c98.8-65.81,111.95-131.89,111.56-190.13-.48-70.96-31.8-106.04-71.59-127.79-21.03-11.5-55.82-9.8-77.34-.4-2.14.93-6.69,3.26-8.38,4.03-8.97,4.06-18.42,1.73-24.6-6.68l-10.56-17.37c-5.87-11.32-5.43-21.88,3.89-28.39l10.28-6c36.76-21.8,94.81-20.41,132.34-3.58,31.82,14.27,62.55,43.33,79.25,75.58,15.48,29.92,28.8,58.05,28.32,108.53-.93,98.72-48.55,184.19-132.85,240.34l-11.05,7.36c-9.05,6.03-21.28,5.45-27.31-3.59Z"/>
</svg>